<?xml version="1.0" encoding="UTF-8" standalone="no"?>
<!-- Created with Inkscape (http://www.inkscape.org/) -->

<svg
   xmlns:dc="http://purl.org/dc/elements/1.1/"
   xmlns:cc="http://creativecommons.org/ns#"
   xmlns:rdf="http://www.w3.org/1999/02/22-rdf-syntax-ns#"
   xmlns:svg="http://www.w3.org/2000/svg"
   xmlns="http://www.w3.org/2000/svg"
   xmlns:sodipodi="http://sodipodi.sourceforge.net/DTD/sodipodi-0.dtd"
   xmlns:inkscape="http://www.inkscape.org/namespaces/inkscape"
   width="210mm"
   height="297mm"
   viewBox="0 0 210 297"
   version="1.1"
   id="svg8"
   inkscape:version="0.92.4 (5da689c313, 2019-01-14)"
   sodipodi:docname="icon_2.svg">
  <defs
     id="defs2" />
  <sodipodi:namedview
     id="base"
     pagecolor="#ffffff"
     bordercolor="#666666"
     borderopacity="1.0"
     inkscape:pageopacity="0.0"
     inkscape:pageshadow="2"
     inkscape:zoom="0.7"
     inkscape:cx="737.77136"
     inkscape:cy="574.76303"
     inkscape:document-units="mm"
     inkscape:current-layer="layer1"
     showgrid="true"
     showguides="false"
     inkscape:window-width="1920"
     inkscape:window-height="1001"
     inkscape:window-x="-9"
     inkscape:window-y="-9"
     inkscape:window-maximized="1">
    <inkscape:grid
       type="xygrid"
       id="grid815" />
  </sodipodi:namedview>
  <metadata
     id="metadata5">
    <rdf:RDF>
      <cc:Work
         rdf:about="">
        <dc:format>image/svg+xml</dc:format>
        <dc:type
           rdf:resource="http://purl.org/dc/dcmitype/StillImage" />
        <dc:title></dc:title>
      </cc:Work>
    </rdf:RDF>
  </metadata>
  <g
     inkscape:label="Layer 1"
     inkscape:groupmode="layer"
     id="layer1">
    <path
       style="opacity:1;fill:#124b00;fill-opacity:1;stroke:#000000;stroke-width:2.5;stroke-miterlimit:4;stroke-dasharray:none;stroke-opacity:1"
       id="path817"
       sodipodi:type="arc"
       sodipodi:cx="104.0803"
       sodipodi:cy="141.96268"
       sodipodi:rx="38.045422"
       sodipodi:ry="42.356598"
       sodipodi:start="3.1425002"
       sodipodi:end="3.1420639"
       sodipodi:open="true"
       d="M 66.034893,141.92424 A 38.045422,42.356598 0 0 1 104.11068,99.606093 38.045422,42.356598 0 0 1 142.12571,141.99188 38.045422,42.356598 0 0 1 104.05822,184.31927 38.045422,42.356598 0 0 1 66.034882,141.94272" />
    <path
       id="path937"
       style="fill:#58d892;fill-opacity:1;stroke:#000000;stroke-width:2.5;stroke-linecap:butt;stroke-linejoin:miter;stroke-miterlimit:4;stroke-dasharray:none;stroke-opacity:1"
       d="m 103.07654,104.90105 v 63.49999 m 0,-63.50004 c -23.010709,41.49999 -39.534569,77.26789 0,63.5 39.53459,13.76789 23.01073,-22.00001 0,-63.5 z m -1.5e-4,-34.39626 v 5.16e-4 A 18.520832,18.511513 0 0 0 84.540576,88.999734 v 0.0078 a 18.520832,18.511513 0 0 0 3.089217,10.224183 25.107179,18.282488 0 0 1 16.746267,-4.677752 25.107179,18.282488 0 0 1 14.80736,3.553273 18.520832,18.511513 0 0 0 2.39882,-9.078 18.520832,18.511513 0 0 0 -18.50585,-18.52445 z m -40.956669,32.75769 c -14.075032,-0.10236 -15.866258,24.32183 -17.251659,49.26366 l 18.520833,-37.04166 10.583334,-7.9375 c -4.702429,-2.93096 -8.604422,-4.26088 -11.852508,-4.2845 z m 84.559699,0 c -3.24809,0.0236 -7.1506,1.35354 -11.85303,4.2845 l 10.58334,7.9375 18.52083,37.04166 c -1.3854,-24.94183 -3.17611,-49.36602 -17.25114,-49.26366 z m -78.962624,62.49283 c -23.87524,10.44289 -5.181476,31.5107 13.213665,50.27083 -6.295462,-14.91009 -17.860725,-31.86942 -6.172235,-39.7862 z m 74.151024,0.0987 -7.04143,10.48463 c 11.68848,7.91678 0.12324,24.87611 -6.17223,39.7862 18.39515,-18.76013 37.08889,-39.82794 13.21366,-50.27083 z" />
  </g>
</svg>
