<svg xmlns="http://www.w3.org/2000/svg" viewBox="0 0 5000 5000"><defs><style>.cls-1{fill:#124b00;}.cls-2{fill:#58d892;}</style></defs><g id="turtle_1" data-name="turtle 1"><path class="cls-1" d="M2378.78,2243.87c-99.88,99.89-132.7,161.24-199.76,174.08s-226.87-52.79-269.68-151.25S2200.8,1851.86,2336,1880c34.24,7.13,42.8,52.79,42.8,52.79Z"/><path class="cls-1" d="M1822.3,2480.74v265.39c0,52.8,58.5,131.28,98.45,129.85s195.49-69.92,214-124.14,7.13-202.61,7.13-202.61-91.32-105.59-194.05-144.12S1822.3,2432.22,1822.3,2480.74Z"/><path class="cls-1" d="M2190.43,2870.27c71.64,24.57,186.93,169.8,188.35,169.8s0,246.85,0,246.85-14.27,84.19-104.16,54.22-291.08-282.52-291.08-282.52-64.21-75.62,27.11-125.56S2140.49,2853.15,2190.43,2870.27Z"/><path class="cls-2" d="M1495.55,2660.52c23-86,68.49-148.39,206.89-228.3s118.43-202.61,119.86-208.32,51.37-218.31,132.7-234-112.72-8.56-188.35,25.68c-54.42,24.65-238.29,145.54-276.81,269.68S1457,2804.64,1495.55,2660.52Z"/><path class="cls-2" d="M1922.18,3131.39c54.22,8.56,186.92,188.35,195.48,206.9s-111.29,141.26-117,225.45-12.84,139.83-51.37,141.26-142.69-149.83-142.69-226.88-4.28-152.67,0-169.8S1868,3122.83,1922.18,3131.39Z"/><path class="cls-2" d="M2437.28,1295c-64.2,0-196.9,105.59-196.9,174.08s-8.57,117,0,134.13,38.52,84.17,38.52,174.07c0,25.69,77-1.42,161.24,0"/><path class="cls-2" d="M2440.14,2336.62S2240.38,2475,2231.81,2499.29s-8.56,264,4.28,286.8c16.69,29.66,204,159.81,204,159.81"/><path class="cls-1" d="M2501.49,2243.87c99.89,99.89,132.7,161.24,199.77,174.08s226.87-52.79,269.68-151.25S2679.48,1851.86,2544.3,1880c-34.24,7.13-42.81,52.79-42.81,52.79Z"/><path class="cls-1" d="M3058,2480.74v265.39c0,52.8-58.51,131.28-98.46,129.85s-195.48-69.92-214-124.14-7.13-202.61-7.13-202.61,91.32-105.59,194-144.12S3058,2432.22,3058,2480.74Z"/><path class="cls-1" d="M2689.84,2870.27c-71.64,24.57-186.92,169.8-188.35,169.8s0,246.85,0,246.85,14.27,84.19,104.17,54.22,291.08-282.52,291.08-282.52,64.21-75.62-27.11-125.56S2739.78,2853.15,2689.84,2870.27Z"/><path class="cls-2" d="M3384.73,2660.52c-23-86-68.49-148.39-206.9-228.3S3059.4,2229.61,3058,2223.9s-51.37-218.31-132.7-234,112.72-8.56,188.34,25.68c54.43,24.65,238.29,145.54,276.82,269.68S3423.26,2804.64,3384.73,2660.52Z"/><path class="cls-2" d="M2958.1,3131.39c-54.23,8.56-186.93,188.35-195.49,206.9s111.3,141.26,117,225.45S2892.46,3703.57,2931,3705s142.69-149.83,142.69-226.88,4.28-152.67,0-169.8S3012.32,3122.83,2958.1,3131.39Z"/><path class="cls-2" d="M2425.87,1296.43c64.21,0,196.91,105.59,196.91,174.08s8.56,117,0,134.12-38.53,84.18-38.53,174.08c0,25.69-77.05-1.43-161.23,0"/><path class="cls-2" d="M2440.14,2336.62S2639.9,2475,2648.46,2499.29s8.56,264-4.28,286.8c-16.68,29.66-204,159.81-204,159.81"/></g></svg>