<svg id="turtle_1" data-name="turtle 1" xmlns="http://www.w3.org/2000/svg" viewBox="0 0 5000 5000"><defs><style>.cls-1{fill:#124b00;}.cls-2{fill:#58d892;}</style></defs><path class="cls-1" d="M2449,2135.29c-142,142-188.69,229.28-284.06,247.54s-322.61-75.07-383.48-215.08,414.45-589.9,606.67-549.86C2436.79,1628,2449,1693,2449,1693Z"/><path class="cls-1" d="M1657.65,2472.1v377.4c0,75.07,83.19,186.67,140,184.64s278-99.42,304.35-176.52,10.15-288.12,10.15-288.12-129.86-150.15-276-204.93S1657.65,2403.12,1657.65,2472.1Z"/><path class="cls-1" d="M2181.14,3026C2283,3061,2446.94,3267.48,2449,3267.48s0,351,0,351-20.29,119.72-148.11,77.11-413.92-401.75-413.92-401.75-91.31-107.53,38.55-178.55S2110.12,3001.68,2181.14,3026Z"/><path class="cls-2" d="M1193,2727.76c32.68-122.26,97.39-211,294.21-324.64s168-288.22,170.43-296.24c32.28-107.92,73-310.43,188.7-332.75s-160.29-12.18-267.83,36.52c-77.39,35-338.84,207-393.63,383.48S1138.23,2932.69,1193,2727.76Z"/><path class="cls-2" d="M1799.68,3397.33c77.1,12.18,265.8,267.83,278,294.21s-158.27,200.87-166.38,320.58S1893,4211,1838.23,4213s-202.9-213-202.9-322.61-6.08-217.1,0-241.45S1722.58,3385.16,1799.68,3397.33Z"/><path class="cls-2" d="M2536.21,1471.8c-119.71-2-229.28,36.53-229.28,0,0-127.84-42.6-223.19-54.78-247.53s0-93.34,0-190.73S2440.85,786,2532.15,786"/><path class="cls-2" d="M2547.39,2259.18S2252.15,2464,2240,2498.48s-12.18,375.37,6.08,407.83c23.73,42.19,298.49,235.93,298.49,235.93C2552.88,3150.92,2547.39,2259.18,2547.39,2259.18Z"/><path class="cls-1" d="M2637.68,2133.87c142,142,188.7,229.28,284.06,247.54s322.61-75.08,383.48-215.08-414.44-589.91-606.67-549.86c-48.7,10.15-60.87,75.07-60.87,75.07Z"/><path class="cls-1" d="M3429,2470.68v377.4c0,75.07-83.19,186.67-140,184.64s-278-99.42-304.35-176.53-10.15-288.11-10.15-288.11,129.86-150.15,276-204.93S3429,2401.7,3429,2470.68Z"/><path class="cls-1" d="M2905.51,3024.6c-101.87,34.93-265.8,241.45-267.83,241.45s0,351,0,351,20.29,119.71,148.12,77.1,413.91-401.74,413.91-401.74,91.31-107.54-38.55-178.55S2976.52,3000.25,2905.51,3024.6Z"/><path class="cls-2" d="M3893.63,2726.34c-32.68-122.26-97.39-211-294.2-324.64S3431,2113.58,3429,2105.46s-73-310.44-188.7-332.76,160.3-12.17,267.83,36.53c77.39,35,338.85,207,393.63,383.48S3948.42,2931.27,3893.63,2726.34Z"/><path class="cls-2" d="M3287,3395.91c-77.1,12.17-265.8,267.83-278,294.21S3167.25,3891,3175.37,4010.7s18.26,198.84,73,200.87,202.9-213,202.9-322.61,6.09-217.11,0-241.45S3364.06,3383.74,3287,3395.91Z"/><path class="cls-2" d="M2530.14,786.61c91.31,0,280,150.14,280,247.54s12.18,166.37,0,190.72-54.78,119.7-54.78,247.54c0,36.52-109.56-2-229.28,0"/><path class="cls-2" d="M2547.59,2258.64s284.06,196.82,296.23,231.31,12.18,375.37-6.08,407.83c-23.73,42.18-293.19,244.46-293.19,244.46"/></svg>