<svg xmlns="http://www.w3.org/2000/svg" xmlns:xlink="http://www.w3.org/1999/xlink" viewBox="0 0 5000 5000"><defs><style>.cls-1{fill:none;}.cls-2{fill:#00acef;stroke:#0081b3;}.cls-2,.cls-3{stroke-miterlimit:10;stroke-width:40px;}.cls-3{fill:#5ac034;stroke:#408941;}.cls-4{clip-path:url(#clip-path);}.cls-5{fill:#f8b159;}.cls-6{fill:#ee9326;}.cls-7{clip-path:url(#clip-path-2);}</style><clipPath id="clip-path"><path class="cls-1" d="M1713.81,2377c164.3,0,174.79,720,0,720S1549.5,2377,1713.81,2377Z"/></clipPath><clipPath id="clip-path-2"><path class="cls-1" d="M3347.55,2003.19c164.3,0,174.79,720,0,720S3183.25,2003.19,3347.55,2003.19Z"/></clipPath></defs><g id="lake"><path class="cls-2" d="M548,4154c486,0,2998-1.87,3374-1,431,1,439-544.71,121-549-371-5-352-426,53-425,352,.87,337-424,4-424H871c-339,0-323,406.07,4,406s107.66,4,253,4c248,0,299.64,433-20,449-319.36,16-347.93-10-534-10C137,3604,110,4154,548,4154Z"/><path class="cls-3" d="M1738,3649.54c-134.93-149.69,343.88-386.1,343.88-386.1S1872.94,3799.23,1738,3649.54Z"/><polyline class="cls-3" points="1714 3097 1714 3409.2 1714 3696"/><g class="cls-4"><path class="cls-5" d="M1714,2376.68c164.31,0,174.79,720,0,720S1549.72,2376.68,1714,2376.68Z"/><path class="cls-6" d="M1714,2329c0,231-.19,799.58-.19,799.58S1898.88,3035.18,1902,2771C1906,2432,1714,2329,1714,2329Z"/></g><line class="cls-3" x1="3347.74" y1="3322.19" x2="3347.74" y2="2723.19"/><g class="cls-7"><path class="cls-5" d="M3347.76,2002.87c164.31,0,174.8,720,0,720S3183.46,2002.87,3347.76,2002.87Z"/><path class="cls-6" d="M3347.74,1955.19c0,231-.19,799.58-.19,799.58s185.07-93.4,188.19-357.58C3539.74,2058.19,3347.74,1955.19,3347.74,1955.19Z"/></g><path class="cls-3" d="M3371,3296.09C3236.1,3146.4,3714.91,2910,3714.91,2910S3506,3445.78,3371,3296.09Z"/><path class="cls-2" d="M1189,3778s109-128.86,174.31-126.83c59.62,1.86,120.86,111.84,180.06,118.37,55.88,6.18,125-112.91,181-118.37,56.93-5.55,129,112,185.8,118.37,61,6.79,144.65-114.46,205.92-118.37,56.75-3.62,183.89,118.37,183.89,118.37"/><path class="cls-2" d="M2435.21,3386s109-128.86,174.32-126.82c59.62,1.86,120.86,111.83,180.06,118.37,55.88,6.17,125-112.91,181-118.37,56.94-5.56,129,112,185.81,118.37,61,6.79,144.64-114.46,205.92-118.37,56.74-3.62,183.88,118.37,183.88,118.37"/></g></svg>